<?xml version="1.0" standalone="no"?>
<!DOCTYPE svg PUBLIC "-//W3C//DTD SVG 20010904//EN"
 "http://www.w3.org/TR/2001/REC-SVG-20010904/DTD/svg10.dtd">
<svg version="1.0" xmlns="http://www.w3.org/2000/svg"
 width="529.000000pt" height="572.000000pt" viewBox="0 0 529.000000 572.000000"
 preserveAspectRatio="xMidYMid meet">

<g transform="translate(0.000000,572.000000) scale(0.100000,-0.100000)"
fill="#000000" stroke="none">
<path d="M1055 5364 c-83 -14 -160 -40 -253 -85 -151 -75 -280 -200 -360 -351
-19 -37 -33 -53 -40 -46 -5 5 -16 11 -23 12 -17 3 -65 23 -102 43 -16 8 -31
12 -34 9 -3 -3 -17 4 -32 15 l-26 20 -16 -39 c-9 -21 -27 -76 -40 -123 l-24
-84 -3 -1778 c-2 -1757 -2 -1778 18 -1877 57 -282 206 -503 460 -684 122 -87
270 -159 395 -193 88 -23 119 -26 260 -27 181 0 267 16 410 76 87 37 2908
1662 3015 1736 163 114 249 214 338 392 76 153 103 261 109 440 4 123 2 161
-17 250 -21 105 -71 238 -117 317 -35 60 -49 65 -20 7 31 -62 79 -214 73 -230
-3 -7 -1 -14 3 -16 4 -2 11 -17 14 -34 7 -37 13 -34 -153 -54 l-95 -12 3 -96
c3 -85 -5 -167 -25 -242 -3 -14 -3 -22 1 -18 4 3 22 0 40 -7 18 -8 44 -16 57
-19 57 -12 69 -15 87 -25 11 -6 22 -8 24 -5 3 2 11 -2 18 -11 10 -12 9 -24 -5
-63 -73 -194 -227 -395 -386 -503 -34 -22 -260 -156 -503 -296 -1507 -872
-2142 -1239 -2301 -1330 -291 -167 -386 -197 -635 -198 -142 0 -178 3 -258 24
-50 13 -92 27 -92 33 0 5 8 25 18 46 11 20 27 66 36 102 10 36 23 71 28 77 7
9 7 13 -2 13 -22 0 -153 71 -210 113 -140 105 -206 207 -257 397 -16 60 -18
188 -21 1750 -3 1763 -3 1800 40 1940 40 131 140 287 236 367 160 133 318 198
512 210 175 10 312 -31 541 -163 519 -299 2717 -1568 2738 -1581 23 -14 22
-13 -4 10 -16 14 -102 67 -190 118 -221 128 -533 307 -975 561 -368 212 -1696
979 -1775 1025 -22 13 -83 37 -135 54 -77 25 -115 31 -205 34 -60 2 -123 1
-140 -1z"/>
<path d="M1150 3745 l0 -365 834 0 c521 0 853 -4 887 -10 128 -24 244 -115
302 -237 30 -63 32 -76 32 -173 0 -95 -3 -111 -29 -167 -36 -79 -120 -160
-210 -205 l-66 -32 0 -363 c0 -200 4 -363 8 -363 5 0 51 7 103 16 308 53 578
229 752 490 149 224 215 485 188 744 -48 457 -348 825 -794 975 -163 54 -176
55 -1128 55 l-879 0 0 -365z"/>
<path d="M4810 3112 c0 -4 9 -8 19 -8 11 0 17 4 15 8 -3 4 -12 8 -20 8 -8 0
-14 -4 -14 -8z"/>
<path d="M1150 2800 l0 -260 -270 0 -270 0 0 -355 0 -355 270 0 270 0 0 -330
0 -330 390 0 390 0 0 330 0 330 305 0 305 0 0 355 0 355 -305 0 -305 0 0 260
0 260 -390 0 -390 0 0 -260z"/>
</g>
</svg>
